<svg width="0" height="0" class="hidden">
  <symbol fill="none" xmlns="http://www.w3.org/2000/svg" viewBox="0 0 20 20" id="tel">
    <g id="icn_phone" clip-path="url(#clip0_15405_61)">
      <path id="Vector" d="M6.44141 0.960964C6.14062 0.234401 5.34766 -0.152317 4.58984 0.0547138L1.15234 0.992214C0.472656 1.17971 0 1.7969 0 2.50003C0 12.1641 7.83594 20 17.5 20C18.2031 20 18.8203 19.5274 19.0078 18.8477L19.9453 15.4102C20.1523 14.6524 19.7656 13.8594 19.0391 13.5586L15.2891 11.9961C14.6523 11.7305 13.9141 11.9141 13.4805 12.4492L11.9023 14.375C9.15234 13.0742 6.92578 10.8477 5.625 8.09768L7.55078 6.52346C8.08594 6.08596 8.26953 5.35159 8.00391 4.71487L6.44141 0.96487V0.960964Z" fill="#DF3C43"></path>
    </g>
    <defs>
      <clipPath id="clip0_15405_61">
        <rect width="20" height="20" fill="white"></rect>
      </clipPath>
    </defs>
  </symbol>

    <symbol fill="none" xmlns="http://www.w3.org/2000/svg" viewBox="0 0 23 18" id="mail">
<g id="icn_mail">
<path id="Vector" d="M20.125 0H2.875C2.11275 0.000812161 1.38196 0.302777 0.842969 0.839637C0.303978 1.3765 0.000815384 2.1044 0 2.86364V15.1364C0.000815384 15.8956 0.303978 16.6235 0.842969 17.1604C1.38196 17.6972 2.11275 17.9992 2.875 18H20.125C20.8872 17.9992 21.618 17.6972 22.157 17.1604C22.696 16.6235 22.9992 15.8956 23 15.1364V2.86364C22.9992 2.1044 22.696 1.3765 22.157 0.839637C21.618 0.302777 20.8872 0.000812161 20.125 0ZM19.397 4.73676L12.0042 10.464C11.86 10.5757 11.6826 10.6363 11.5 10.6363C11.3174 10.6363 11.14 10.5757 10.9958 10.464L3.60299 4.73676C3.51613 4.67143 3.44317 4.58955 3.38836 4.49589C3.33354 4.40223 3.29796 4.29865 3.28369 4.19117C3.26941 4.08369 3.27672 3.97446 3.30519 3.86982C3.33366 3.76518 3.38273 3.66722 3.44954 3.58163C3.51635 3.49604 3.59957 3.42454 3.69436 3.37126C3.78916 3.31799 3.89364 3.28401 4.00174 3.2713C4.10983 3.25859 4.21938 3.26741 4.32402 3.29724C4.42867 3.32707 4.52632 3.37731 4.61129 3.44506L11.5 8.78165L18.3887 3.44506C18.561 3.31549 18.7775 3.25866 18.9915 3.28686C19.2055 3.31507 19.3997 3.42603 19.5322 3.59577C19.6647 3.7655 19.7248 3.98036 19.6995 4.19388C19.6742 4.4074 19.5655 4.60242 19.397 4.73676Z" fill="#DF3C43"/>
</g>
  </symbol>

    <symbol fill="none" xmlns="http://www.w3.org/2000/svg" viewBox="0 0 30 30" id="cross">
    <path d="M5.10054 5.10051L24.8995 24.8995M25.6066 5.80761L5.80765 25.6066" stroke="#A8A8A8" stroke-width="2" stroke-linecap="round"></path>
  </symbol>

  <symbol fill="none" xmlns="http://www.w3.org/2000/svg" viewBox="0 0 30 30" id="plus">
    <path d="M15 1L15 29M29 16L1 16" stroke="#A8A8A8" stroke-width="2" stroke-linecap="round"></path>
  </symbol>
</svg>
