<svg width="141" height="71" viewBox="0 0 141 71" fill="none" xmlns="http://www.w3.org/2000/svg">
<g clip-path="url(#clip0_15406_95)">
<path d="M135.804 0.0966797H6.00316C2.96385 0.0966797 0.5 2.55565 0.5 5.58894V65.4112C0.5 68.4445 2.96385 70.9034 6.00316 70.9034H135.804C138.843 70.9034 141.307 68.4445 141.307 65.4112V5.58894C141.307 2.55565 138.843 0.0966797 135.804 0.0966797Z" fill="#F4F4F4"/>
<path d="M135.4 0.192556C138.386 0.192556 140.807 2.60869 140.807 5.58888V65.4104C140.807 68.3906 138.386 70.8068 135.4 70.8068H5.59997C2.61386 70.8068 0.192938 68.3906 0.192938 65.4104V5.58888C0.192938 2.60869 2.61386 0.192556 5.59997 0.192556H135.4ZM135.4 0H5.59997C2.51228 0 0 2.50731 0 5.58888V65.4104C0 68.492 2.51228 70.9993 5.59997 70.9993H135.4C138.488 70.9993 141 68.492 141 65.4104V5.58888C141 2.50731 138.488 0 135.4 0Z" fill="black"/>
<path d="M140.807 5.58895C140.807 2.60876 138.386 0.192627 135.4 0.192627H131.852L125.053 3.38238H135.4C136.173 3.38238 136.854 3.78042 137.249 4.38122C136.901 4.15329 136.485 4.01993 136.039 4.01993H123.693L4.02853 60.1584V66.0487C4.02853 66.4944 4.16215 66.9094 4.39054 67.2565C3.78855 66.8618 3.38972 66.1821 3.38972 65.4112V60.4585L0.193634 61.9574V65.4105C0.193634 68.3907 2.61456 70.8068 5.60066 70.8068H11.2259L13.1961 69.8828H6.24015C5.01844 69.8828 3.92899 69.3099 3.22473 68.42C3.87922 68.9357 4.70415 69.2446 5.60066 69.2446H14.5556L139.242 10.7505V5.58895C139.242 4.69421 138.932 3.87024 138.415 3.21773C139.307 3.92059 139.881 5.00788 139.881 6.22717V10.4512L140.807 10.0171V5.58963V5.58895Z" fill="#DF3C43"/>
<path d="M4.02853 6.22711C4.02853 5.01054 5.02049 4.02055 6.23947 4.02055H123.694L125.053 3.38232H5.59998C4.381 3.38232 3.38904 4.37232 3.38904 5.58889V60.4578L4.02853 60.1577V6.22711Z" fill="#D3D2D0"/>
<path d="M4.38987 67.2565C4.16148 66.9095 4.02786 66.4944 4.02786 66.0487V60.1584L3.38837 60.4585V65.4112C3.38837 66.1828 3.7872 66.8618 4.38919 67.2565H4.38987Z" fill="#DF3C43"/>
<path d="M136.04 4.0206C136.486 4.0206 136.902 4.15396 137.25 4.3819C136.854 3.7811 136.173 3.38306 135.401 3.38306H125.054L123.694 4.02128H136.04L136.04 4.0206Z" fill="#DF3C43"/>
<path d="M139.242 65.4112C139.242 67.5252 137.518 69.2453 135.4 69.2453H14.5549L13.1955 69.8835H136.04C138.158 69.8835 139.881 68.1635 139.881 66.0494V10.4512L139.242 10.7512V65.4112Z" fill="#D3D2D0"/>
<path d="M138.415 3.21772C138.932 3.87091 139.242 4.69421 139.242 5.58895V10.7505L139.881 10.4505V6.22649C139.881 5.0072 139.307 3.9199 138.415 3.21704V3.21772Z" fill="#DF3C43"/>
<path d="M5.59999 69.2453C4.70348 69.2453 3.87787 68.9364 3.22406 68.4207C3.92832 69.3106 5.01777 69.8835 6.23948 69.8835H13.1955L14.5549 69.2453H5.59999Z" fill="#DF3C43"/>
<path d="M24.0122 10.2348C23.9843 10.2348 23.955 10.2348 23.927 10.2321C23.8984 10.2307 23.8698 10.2287 23.8411 10.226C23.8132 10.2233 23.7845 10.2199 23.7566 10.2151C23.7286 10.211 23.7007 10.2062 23.6727 10.2008C23.6175 10.1892 23.5616 10.1756 23.5077 10.1586C23.4532 10.1423 23.3993 10.1232 23.3475 10.1015C23.295 10.0797 23.2432 10.0552 23.1934 10.0293C23.143 10.0021 23.0939 9.97287 23.0469 9.94157C23.0237 9.92592 22.9998 9.90959 22.9773 9.89326C22.9541 9.87625 22.9317 9.85856 22.9098 9.84087C22.8873 9.82249 22.8655 9.80412 22.8444 9.78507C22.8232 9.76602 22.8028 9.74629 22.7823 9.72588C22.7626 9.70614 22.7428 9.68505 22.7237 9.66396C22.7046 9.64287 22.6855 9.62109 22.6678 9.59932C22.6494 9.57755 22.6324 9.55509 22.6153 9.53196C22.5983 9.50951 22.5819 9.48569 22.5662 9.46256C22.5349 9.41561 22.5056 9.36594 22.479 9.31627C22.4524 9.2666 22.4278 9.21489 22.4067 9.1625C22.3849 9.11079 22.3651 9.05703 22.3487 9.0026C22.3324 8.94885 22.3181 8.89306 22.3072 8.83794C22.3017 8.81005 22.2969 8.78215 22.2922 8.75425C22.2881 8.72636 22.2847 8.69778 22.2819 8.6692C22.2792 8.6413 22.2765 8.61273 22.2751 8.58415C22.2738 8.55557 22.2731 8.527 22.2731 8.49842C22.2731 8.46984 22.2731 8.44126 22.2751 8.41337C22.2765 8.38479 22.2792 8.35621 22.2819 8.32832C22.2847 8.29974 22.2881 8.27116 22.2922 8.24327C22.2969 8.21537 22.3017 8.18747 22.3072 8.15957C22.3181 8.10446 22.3324 8.04867 22.3487 7.99492C22.3651 7.94048 22.3849 7.88673 22.4067 7.83502C22.4278 7.78263 22.4524 7.73092 22.479 7.68125C22.5056 7.6309 22.5349 7.58191 22.5662 7.53496C22.5819 7.51183 22.5983 7.48801 22.6153 7.46556C22.6324 7.44242 22.6494 7.41997 22.6678 7.3982C22.6855 7.37642 22.7046 7.35465 22.7237 7.33356C22.7428 7.31247 22.7626 7.29137 22.7823 7.27096C22.8028 7.25123 22.8232 7.2315 22.8444 7.21245C22.8655 7.19339 22.8873 7.17434 22.9098 7.15665C22.9317 7.13896 22.9541 7.12127 22.9773 7.10426C22.9998 7.08793 23.0237 7.07092 23.0469 7.05527C23.0939 7.02397 23.143 6.99472 23.1934 6.96818C23.2432 6.94164 23.295 6.91715 23.3475 6.89606C23.3993 6.87428 23.4532 6.85523 23.5077 6.83822C23.5616 6.82189 23.6175 6.80828 23.6727 6.79672C23.7007 6.79127 23.7286 6.78651 23.7566 6.78175C23.7845 6.77766 23.8132 6.77426 23.8411 6.77154C23.8698 6.76882 23.8984 6.7661 23.927 6.76474C23.9836 6.76201 24.0416 6.76201 24.0981 6.76474C24.1268 6.7661 24.1554 6.76882 24.1834 6.77154C24.212 6.77426 24.2399 6.77766 24.2686 6.78175C24.2965 6.78651 24.3245 6.79127 24.3524 6.79672C24.4077 6.80828 24.4636 6.82189 24.5174 6.83822C24.5713 6.85523 24.6251 6.87428 24.6776 6.89606C24.7301 6.91715 24.7819 6.94164 24.8317 6.96818C24.8815 6.99472 24.9306 7.02397 24.9776 7.05527C25.0015 7.07092 25.0253 7.08793 25.0478 7.10426C25.0703 7.12127 25.0935 7.13896 25.1153 7.15665C25.1371 7.17434 25.159 7.19339 25.1801 7.21245C25.2012 7.2315 25.2224 7.25123 25.2421 7.27096C25.2626 7.29137 25.2824 7.31247 25.3014 7.33356C25.3205 7.35465 25.3389 7.37642 25.3573 7.3982C25.3751 7.41997 25.3928 7.44242 25.4098 7.46556C25.4262 7.48801 25.4426 7.51183 25.4582 7.53496C25.4896 7.58191 25.5189 7.6309 25.5455 7.68125C25.5721 7.73092 25.5966 7.78263 25.6185 7.83502C25.6403 7.88673 25.6594 7.94048 25.6757 7.99492C25.6928 8.04867 25.7064 8.10446 25.7173 8.15957C25.7235 8.18747 25.7282 8.21537 25.7323 8.24327C25.7364 8.27116 25.7405 8.29974 25.7432 8.32832C25.746 8.35621 25.748 8.38479 25.7494 8.41337C25.7507 8.44126 25.7514 8.47052 25.7514 8.49842C25.7514 8.52632 25.7507 8.55557 25.7494 8.58415C25.748 8.61273 25.746 8.6413 25.7432 8.6692C25.7405 8.69778 25.7364 8.72636 25.7323 8.75425C25.7282 8.78215 25.7235 8.81005 25.7173 8.83794C25.7064 8.89306 25.6928 8.94885 25.6757 9.0026C25.6594 9.05703 25.6403 9.11079 25.6185 9.1625C25.5966 9.21489 25.5721 9.2666 25.5455 9.31627C25.5189 9.36594 25.4896 9.41561 25.4582 9.46256C25.4426 9.48569 25.4262 9.50951 25.4098 9.53196C25.3928 9.55509 25.3751 9.57755 25.3573 9.59932C25.3389 9.62109 25.3205 9.64287 25.3014 9.66396C25.2824 9.68505 25.2626 9.70614 25.2421 9.72588C25.2224 9.74629 25.2012 9.76602 25.1801 9.78507C25.159 9.80412 25.1371 9.82249 25.1153 9.84087C25.0935 9.85856 25.0703 9.87625 25.0478 9.89326C25.0253 9.90959 25.0015 9.92592 24.9776 9.94157C24.9306 9.97287 24.8815 10.0021 24.8317 10.0293C24.7819 10.0552 24.7301 10.0797 24.6776 10.1015C24.6251 10.1232 24.5713 10.1423 24.5174 10.1586C24.4636 10.1756 24.4077 10.1892 24.3524 10.2008C24.3245 10.2062 24.2965 10.211 24.2686 10.2151C24.2399 10.2199 24.212 10.2233 24.1834 10.226C24.1554 10.2287 24.1268 10.2307 24.0981 10.2321C24.0695 10.2341 24.0409 10.2348 24.0122 10.2348Z" fill="black"/>
<path d="M113.079 10.2348C113.051 10.2348 113.022 10.2335 112.993 10.2321C112.965 10.2307 112.936 10.2287 112.908 10.226C112.88 10.2233 112.852 10.2199 112.824 10.2151C112.795 10.211 112.767 10.2062 112.739 10.2008C112.684 10.1892 112.628 10.1756 112.574 10.1586C112.52 10.1423 112.466 10.1232 112.414 10.1015C112.361 10.0797 112.31 10.0552 112.26 10.0287C112.21 10.0021 112.161 9.97287 112.114 9.94157C112.09 9.92592 112.067 9.90959 112.044 9.89326C112.021 9.87625 111.998 9.85856 111.976 9.84087C111.954 9.82249 111.933 9.80412 111.911 9.78507C111.89 9.76602 111.869 9.74629 111.849 9.72588C111.829 9.70614 111.809 9.68505 111.79 9.66396C111.771 9.64287 111.753 9.62109 111.734 9.59932C111.716 9.57755 111.699 9.55441 111.682 9.53196C111.665 9.50951 111.649 9.48569 111.633 9.46188C111.602 9.41493 111.573 9.36594 111.546 9.31627C111.519 9.2666 111.495 9.21489 111.473 9.1625C111.451 9.11079 111.432 9.05635 111.416 9.0026C111.399 8.94885 111.385 8.89306 111.374 8.83794C111.368 8.81005 111.363 8.78215 111.359 8.75425C111.355 8.72636 111.351 8.69778 111.348 8.6692C111.346 8.6413 111.343 8.61273 111.342 8.58415C111.341 8.55557 111.34 8.527 111.34 8.49842C111.34 8.46984 111.341 8.44194 111.342 8.41337C111.343 8.38479 111.346 8.35621 111.348 8.32832C111.351 8.29974 111.355 8.27116 111.359 8.24327C111.363 8.21537 111.368 8.18747 111.374 8.15957C111.385 8.10446 111.399 8.04867 111.416 7.99492C111.432 7.94048 111.451 7.88673 111.473 7.83502C111.495 7.78263 111.519 7.73092 111.546 7.68125C111.573 7.6309 111.602 7.58191 111.633 7.53496C111.649 7.51183 111.665 7.48801 111.682 7.46556C111.699 7.44242 111.716 7.41997 111.734 7.3982C111.753 7.37574 111.771 7.35397 111.79 7.33356C111.809 7.31247 111.829 7.29137 111.849 7.27096C111.87 7.25055 111.89 7.2315 111.911 7.21245C111.933 7.19339 111.954 7.17434 111.976 7.15665C111.998 7.13896 112.021 7.12127 112.044 7.10426C112.067 7.08725 112.09 7.07092 112.114 7.05527C112.161 7.02397 112.21 6.99472 112.26 6.96818C112.31 6.94164 112.361 6.91715 112.414 6.89606C112.466 6.87428 112.52 6.85455 112.574 6.83822C112.628 6.82189 112.684 6.8076 112.739 6.79672C112.767 6.79127 112.795 6.78651 112.824 6.78175C112.852 6.77766 112.88 6.77426 112.908 6.77154C112.936 6.76882 112.965 6.7661 112.993 6.76474C113.051 6.76201 113.108 6.76201 113.164 6.76474C113.193 6.7661 113.222 6.76882 113.25 6.77154C113.278 6.77426 113.307 6.77766 113.335 6.78175C113.363 6.78651 113.391 6.79127 113.419 6.79672C113.475 6.8076 113.53 6.82189 113.584 6.83822C113.638 6.85455 113.692 6.87428 113.745 6.89606C113.796 6.91715 113.848 6.94164 113.898 6.96818C113.948 6.99472 113.998 7.02397 114.045 7.05527C114.068 7.07092 114.092 7.08725 114.114 7.10426C114.137 7.12127 114.16 7.13896 114.182 7.15665C114.204 7.17434 114.226 7.19339 114.247 7.21245C114.268 7.2315 114.289 7.25123 114.309 7.27096C114.329 7.29137 114.349 7.31247 114.368 7.33356C114.387 7.35397 114.406 7.37574 114.424 7.3982C114.442 7.41997 114.459 7.44242 114.476 7.46556C114.493 7.48801 114.51 7.51183 114.525 7.53496C114.557 7.58191 114.586 7.6309 114.613 7.68125C114.639 7.73092 114.664 7.78263 114.685 7.83502C114.707 7.88673 114.726 7.94048 114.743 7.99492C114.759 8.04867 114.773 8.10446 114.784 8.15957C114.79 8.18747 114.795 8.21537 114.799 8.24327C114.803 8.27116 114.807 8.29974 114.81 8.32832C114.813 8.35621 114.815 8.38479 114.816 8.41337C114.818 8.44194 114.818 8.47052 114.818 8.49842C114.818 8.52632 114.818 8.55557 114.816 8.58415C114.815 8.61273 114.813 8.6413 114.81 8.6692C114.807 8.69778 114.803 8.72636 114.799 8.75425C114.795 8.78215 114.79 8.81005 114.784 8.83794C114.773 8.89306 114.759 8.94885 114.743 9.0026C114.726 9.05635 114.707 9.11079 114.685 9.1625C114.664 9.21489 114.639 9.2666 114.613 9.31627C114.586 9.36594 114.557 9.41493 114.525 9.46188C114.51 9.48569 114.493 9.50951 114.476 9.53196C114.459 9.55441 114.442 9.57755 114.424 9.59932C114.406 9.62109 114.387 9.64287 114.368 9.66396C114.349 9.68505 114.329 9.70614 114.309 9.72588C114.289 9.74629 114.268 9.76602 114.247 9.78507C114.226 9.80412 114.204 9.82249 114.182 9.84087C114.16 9.85856 114.137 9.87625 114.114 9.89326C114.092 9.90959 114.068 9.92592 114.045 9.94157C113.998 9.97287 113.948 10.0021 113.898 10.0287C113.848 10.0552 113.796 10.0797 113.745 10.1015C113.692 10.1232 113.638 10.1423 113.584 10.1586C113.53 10.1756 113.475 10.1892 113.419 10.2008C113.391 10.2062 113.363 10.211 113.335 10.2151C113.307 10.2199 113.278 10.2233 113.25 10.226C113.222 10.2287 113.193 10.2307 113.164 10.2321C113.137 10.2335 113.107 10.2348 113.079 10.2348Z" fill="black"/>
<path d="M21.3527 21.573H11.517C10.4227 21.573 9.53304 20.685 9.53304 19.593V16.8938C9.53304 15.8018 10.4227 14.9138 11.517 14.9138H21.3527C22.4469 14.9138 23.3366 15.8018 23.3366 16.8938V19.593C23.3366 20.685 22.4469 21.573 21.3527 21.573ZM11.5504 19.5597H21.3186V16.9271H11.5504V19.5597ZM13.7449 30.9102H10.0894C9.019 30.9102 8.14771 30.0414 8.14771 28.9724V24.5253C8.14771 23.457 9.01831 22.5875 10.0894 22.5875H13.7449C14.8153 22.5875 15.6866 23.4564 15.6866 24.5253V28.9724C15.6866 30.0407 14.816 30.9102 13.7449 30.9102ZM10.0894 24.5164C10.0846 24.5164 10.0805 24.5205 10.0805 24.5253V28.9724C10.0805 28.9772 10.0846 28.9813 10.0894 28.9813H13.7449C13.7497 28.9813 13.7538 28.9772 13.7538 28.9724V24.5253C13.7538 24.5205 13.7497 24.5164 13.7449 24.5164H10.0894ZM22.3419 30.9102H18.6863C17.616 30.9102 16.7447 30.0414 16.7447 28.9724V24.5253C16.7447 23.457 17.6153 22.5875 18.6863 22.5875H22.3419C23.4123 22.5875 24.2836 23.4564 24.2836 24.5253V28.9724C24.2836 30.0407 23.413 30.9102 22.3419 30.9102ZM18.6863 24.5164C18.6816 24.5164 18.6775 24.5205 18.6775 24.5253V28.9724C18.6775 28.9772 18.6816 28.9813 18.6863 28.9813H22.3419C22.3467 28.9813 22.3508 28.9772 22.3508 28.9724V24.5253C22.3508 24.5205 22.3467 24.5164 22.3419 24.5164H18.6863ZM112.732 50.3856H104.973C103.909 50.3856 103.043 51.2497 103.043 52.3118V63.2596C103.043 64.3217 103.909 65.1858 104.973 65.1858H112.732C113.796 65.1858 114.662 64.3217 114.662 63.2596V52.3118C114.662 51.2497 113.796 50.3856 112.732 50.3856ZM112.923 52.3118V56.7821H109.723V52.122H112.733C112.838 52.122 112.924 52.207 112.924 52.3125L112.923 52.3118ZM104.974 52.1213H107.984V56.7814H104.784V52.3111C104.784 52.2064 104.869 52.1206 104.975 52.1206L104.974 52.1213ZM104.783 63.2596V58.5178H107.983V63.4501H104.973C104.868 63.4501 104.782 63.3651 104.782 63.2596H104.783ZM112.732 63.4501H109.722V58.5178H112.922V63.2596C112.922 63.3644 112.837 63.4501 112.732 63.4501H112.732ZM101.443 53.7543H100.763V50.3495C100.763 49.8705 100.373 49.4813 99.8927 49.4813C99.412 49.4813 99.0228 49.8698 99.0228 50.3495V53.7543H96.4246V50.3495C96.4246 49.8705 96.0353 49.4813 95.5546 49.4813C95.074 49.4813 94.6847 49.8698 94.6847 50.3495V53.7543H92.5686V50.3495C92.5686 49.8705 92.1793 49.4813 91.6986 49.4813C91.218 49.4813 90.8287 49.8698 90.8287 50.3495V53.7543H89.9151C89.4345 53.7543 89.0452 54.1428 89.0452 54.6225C89.0452 55.1022 89.4345 55.4907 89.9151 55.4907H90.8287V63.4712C90.8287 64.417 91.5991 65.1858 92.5467 65.1858H101.084C101.564 65.1858 101.954 64.7973 101.954 64.3176C101.954 63.8379 101.564 63.4494 101.084 63.4494H92.5679V55.49H94.684V59.4445C94.684 60.3903 95.4544 61.1592 96.4021 61.1592H99.0432C99.9902 61.1592 100.761 60.3903 100.761 59.4445V55.49H101.442C101.922 55.49 102.312 55.1015 102.312 54.6218C102.312 54.1421 101.922 53.7536 101.442 53.7536L101.443 53.7543ZM99.0234 59.4235H96.4253V55.49H99.0234V59.4235ZM124.722 57.8027H119.326C118.309 57.8027 117.481 58.6287 117.481 59.6439V63.3447C117.481 64.3598 118.309 65.1858 119.326 65.1858H124.722C125.74 65.1858 126.567 64.3598 126.567 63.3447V59.6439C126.567 58.6287 125.74 57.8027 124.722 57.8027ZM124.828 63.3447C124.828 63.4025 124.781 63.4501 124.722 63.4501H119.326C119.268 63.4501 119.221 63.4032 119.221 63.3447V59.6439C119.221 59.5861 119.268 59.5384 119.326 59.5384H124.722C124.78 59.5384 124.828 59.5854 124.828 59.6439V63.3447ZM128.174 57.0155C128.138 56.9964 124.532 55.1117 122.738 52.5445C122.575 52.3118 122.309 52.173 122.025 52.173C121.74 52.173 121.474 52.3118 121.312 52.5445C119.523 55.1035 115.911 56.9964 115.875 57.0155C115.449 57.2359 115.282 57.7598 115.504 58.1858C115.725 58.6117 116.249 58.7777 116.676 58.5566C116.822 58.4811 119.914 56.8638 122.025 54.4456C124.137 56.8644 127.228 58.4811 127.374 58.5566C127.503 58.6226 127.639 58.6539 127.774 58.6539C128.088 58.6539 128.392 58.4831 128.547 58.1851C128.768 57.7599 128.602 57.2359 128.175 57.0148L128.174 57.0155ZM126.991 54.136C127.117 54.2006 127.252 54.2313 127.385 54.2313C127.7 54.2313 128.004 54.0598 128.158 53.7604C128.378 53.3352 128.211 52.8126 127.785 52.5915C127.771 52.584 126.344 51.8328 124.538 49.9664C124.204 49.6215 123.654 49.6126 123.308 49.9454C122.963 50.2781 122.953 50.8278 123.287 51.1728C125.313 53.2651 126.922 54.1006 126.99 54.1353L126.991 54.136ZM116.685 54.2319C116.819 54.2319 116.954 54.2013 117.081 54.136C117.149 54.1013 118.758 53.2658 120.784 51.1735C121.118 50.8285 121.108 50.2794 120.763 49.946C120.417 49.6126 119.867 49.6228 119.533 49.9671C117.726 51.8335 116.299 52.5847 116.288 52.5908C115.86 52.8092 115.691 53.3324 115.91 53.759C116.064 54.0591 116.369 54.2313 116.684 54.2313L116.685 54.2319ZM23.5664 48.7934V33.342C23.5664 32.8093 23.1341 32.3779 22.6003 32.3779C22.0665 32.3779 21.6343 32.8093 21.6343 33.342V48.7934C21.6343 49.3262 22.0665 49.7576 22.6003 49.7576C23.1341 49.7576 23.5664 49.3262 23.5664 48.7934ZM17.0597 47.4326V33.7503C17.0597 33.2175 16.6274 32.7861 16.0936 32.7861C15.5598 32.7861 15.1276 33.2175 15.1276 33.7503V47.4326C15.1276 47.9654 15.5598 48.3967 16.0936 48.3967C16.6274 48.3967 17.0597 47.9654 17.0597 47.4326ZM9.05036 49.2119L9.52077 48.2355C10.6423 45.9098 11.2347 43.3168 11.2347 40.736V33.7503C11.2347 33.2175 10.8025 32.7861 10.2687 32.7861C9.73484 32.7861 9.30261 33.2175 9.30261 33.7503V40.736C9.30261 43.029 8.77629 45.3329 7.78024 47.3993L7.30983 48.3757C7.07871 48.8553 7.28051 49.4316 7.76183 49.663C7.89682 49.7276 8.03931 49.7589 8.18043 49.7589C8.5404 49.7589 8.88537 49.5575 9.05172 49.2126L9.05036 49.2119Z" fill="black"/>
<path d="M37.2581 13.5054H44.4439C51.9814 13.5054 54.073 18.0662 54.073 25.5615V33.6496C54.073 41.0504 52.3673 46.7529 44.1889 46.7529H37.2581V13.5054ZM41.8873 42.8575H43.9646C48.2378 42.8575 49.3423 39.959 49.3423 34.1095V25.3268C49.3423 20.1326 48.2985 17.4463 43.9823 17.4463H41.8873V42.8575Z" fill="black"/>
<path d="M65.0752 31.7737V46.7522H60.4706V13.5054H68.1207C73.4704 13.5054 76.3904 15.9943 76.3904 21.7336V22.6031C76.3904 27.4415 74.2872 29.2072 72.6312 29.827C74.9403 30.7925 76.0141 32.6235 76.0141 37.2278V37.7245C76.0141 40.8013 76.0386 44.7994 76.3836 46.7529H71.9003C71.4517 44.9076 71.479 40.4196 71.479 37.8871V37.4456C71.479 33.1243 70.7516 31.7744 67.2685 31.7744H65.0759L65.0752 31.7737ZM65.0752 27.9539H67.3844C70.6377 27.9539 71.7572 26.3773 71.7572 22.8018V21.9846C71.7572 19.0902 70.7932 17.3252 67.6039 17.3252H65.0752V27.9539Z" fill="black"/>
<path d="M90.4592 27.3469V31.4709H81.0864V27.3469H90.4592Z" fill="black"/>
<path d="M96.0448 13.5054H109.889V17.6872H100.649V27.3755H109.372V31.5328H100.649V46.7522H96.0448V13.5054Z" fill="black"/>
<path d="M119.844 17.6872H113.774V13.5054H130.532V17.6872H124.461V46.7522H119.844V17.6872Z" fill="black"/>
</g>
<defs>
<clipPath id="clip0_15406_95">
<rect width="141" height="71" fill="white"/>
</clipPath>
</defs>
</svg>
