<svg width="140" height="34" viewBox="0 0 140 34" fill="none" xmlns="http://www.w3.org/2000/svg">
<path d="M34.3793 11.1616C34.3793 8.23948 32.0697 6.93708 28.943 6.93708H28.4523C28.1868 6.20665 27.697 5.84583 26.9831 5.84583C26.3079 5.84583 25.7394 6.47926 25.3132 7.07798C25.1355 7.35977 24.6026 8.23988 24.5671 8.34525C23.8919 7.85271 23.2167 7.60604 22.5774 7.60604C21.227 7.60604 19.7702 8.275 18.2067 9.61252C16.5364 11.0558 15.1151 12.7458 13.9782 14.682C12.8413 16.6183 12.2725 18.5194 12.2725 20.4205C12.2725 22.9199 14.4399 23.9409 17.1048 23.9409C18.0641 23.9409 19.13 23.448 20.3737 22.4621C21.6173 21.4411 22.6479 20.4556 23.4294 19.5049C24.2464 18.5545 24.9929 17.5335 25.739 16.4774C26.4142 17.0054 27.1603 17.2517 28.0487 17.2517C28.213 17.2517 28.3818 17.2285 28.5543 17.181C28.3343 18.8048 28.232 20.084 28.232 21.0188C28.232 22.3918 28.8004 23.2368 29.8309 23.624C30.9324 23.9409 31.5721 24.0112 32.8867 24.0112C33.5619 24.0112 34.059 23.2719 34.6278 21.8286C34.9477 21.0894 35.0899 20.7374 35.0899 20.7019C35.7647 19.0826 36.8311 17.1814 38.2166 15.0341C38.0035 16.196 37.8967 17.3575 37.8967 18.5194C37.8967 22.427 39.2826 24.3983 42.0543 24.3983C43.3334 24.3983 44.4702 23.9054 45.4653 22.955C46.4959 21.9691 47.3133 20.8428 47.9526 19.6106C48.3788 18.8008 48.8409 17.7798 49.303 16.4774C49.8006 15.1746 50.1559 14.0131 50.3335 13.0623C50.7952 13.1677 51.2928 13.2032 51.8616 13.2032C53.9581 13.2032 55.0241 12.7103 55.0241 11.6893C55.0241 11.3021 54.7755 11.0909 54.278 11.0909C53.8518 11.0909 52.8567 11.4781 52.4305 11.4781C51.1868 11.4781 50.5471 10.95 50.5471 9.92904C50.5471 8.4151 50.4048 7.32385 50.1563 6.61976C49.6233 5.24672 48.6995 4.57775 47.3137 4.57775C46.4963 4.57775 46.1764 5.77478 46.1764 6.76066C46.1764 8.66177 46.6026 10.2108 47.4555 11.4075C47.2778 12.9214 46.7448 14.8928 45.8565 17.2864C44.826 20.1379 43.8309 21.6167 42.9426 21.7221C42.6586 21.7221 42.5163 20.9829 42.5163 19.5041C42.5163 18.483 42.7295 17.0046 43.1561 15.0684C43.5823 13.1322 43.8313 11.724 43.9022 10.8088C43.9022 9.75263 42.4809 9.15391 39.6383 9.01301C38.75 9.82287 37.4709 11.5831 35.8006 14.3643L33.4201 18.5186L33.7399 16.7584L34.0594 14.8221C34.2016 13.8362 34.3793 12.3227 34.3793 11.1608V11.1616ZM18.2349 31.5434C18.7256 32.5684 19.5845 33.2633 20.8193 33.1367C21.718 33.0445 23.4266 32.5197 25.9437 31.5617C28.9495 30.2913 31.2567 29.5736 32.9125 29.4036C34.3793 29.2531 35.9569 29.2227 37.6501 29.3549C38.9599 29.483 40.7107 29.6965 42.9986 29.9867C42.7379 27.8709 41.2163 26.4088 39.0964 25.9262C32.5362 24.4334 24.7975 26.3948 18.9774 29.4754C18.1857 29.8941 17.8687 30.7786 18.2349 31.5434ZM113.823 20.5155C113.164 20.4101 112.849 19.4881 112.849 18.6599C112.849 18.1318 113.062 17.3575 113.453 16.3365C113.879 15.3155 114.093 14.506 114.093 13.9073C114.093 13.7915 114.091 13.6794 114.086 13.5712C114.275 14.0198 114.346 14.5531 114.346 15.2803C114.346 16.4626 114.182 18.2288 113.823 20.5155ZM85.3743 29.4674C87.3 29.4674 89.9509 28.8356 92.1477 27.3899C92.1356 27.4725 92.1296 27.5432 92.1296 27.6018C92.1296 28.3059 92.5203 28.834 93.2665 29.1509C94.0126 29.5029 94.83 29.679 95.7183 29.679C96.6775 29.679 97.424 28.5877 97.6726 27.8836L97.9212 27.0215C98.5593 28.5666 100.374 29.2215 102.509 29.2215C103.468 29.2215 104.534 28.7286 105.778 27.7427C107.021 26.7217 108.052 25.7362 108.834 24.7855C109.651 23.8351 110.397 22.8141 111.143 21.758C111.818 22.2861 112.564 22.5323 113.453 22.5323L113.521 22.5307C113.307 24.1213 113.208 25.3774 113.208 26.299C113.208 27.6721 113.776 28.5171 114.807 28.9042C115.908 29.2212 116.548 29.2914 117.863 29.2914C118.538 29.2914 119.035 28.5522 119.604 27.1089C119.924 26.3697 120.066 26.0176 120.066 25.9821C120.741 24.3628 121.807 22.4617 123.192 20.3143C122.979 21.4762 122.873 22.6377 122.873 23.7996C122.873 27.7072 124.258 29.6786 127.03 29.6786C128.309 29.6786 129.446 29.1856 130.441 28.2353C131.472 27.2494 132.289 26.123 132.929 24.8909C133.355 24.081 133.817 23.06 134.279 21.7576C134.776 20.4548 135.132 19.2933 135.309 18.3426C135.771 18.4483 136.269 18.4834 136.838 18.4834C138.934 18.4834 140 17.9905 140 16.9695C140 16.5823 139.751 16.3712 139.254 16.3712C138.828 16.3712 137.833 16.7584 137.406 16.7584C136.163 16.7584 135.523 16.2303 135.523 15.2093C135.523 13.6953 135.381 12.6041 135.132 11.9C134.599 10.527 133.675 9.858 132.29 9.858C131.472 9.858 131.152 11.055 131.152 12.0405C131.152 13.9416 131.579 15.4907 132.431 16.6873C132.254 18.2013 131.721 20.1726 130.832 22.5663C129.802 25.4177 128.807 26.8966 127.918 27.0019C127.634 27.0019 127.492 26.2627 127.492 24.7839C127.492 23.7629 127.705 22.2845 128.132 20.3482C128.558 18.412 128.807 17.0038 128.878 16.0886C128.878 15.0325 127.457 14.4338 124.614 14.2929C123.726 15.1027 122.446 16.8629 120.776 19.6441L118.396 23.7984L118.716 22.0382L119.035 20.102C119.178 19.1161 119.355 17.6025 119.355 16.4406C119.355 13.5185 117.046 12.2161 113.919 12.2161H113.856C113.591 11.4857 113.101 11.1249 112.387 11.1249C111.712 11.1249 111.143 11.7583 110.717 12.357C110.539 12.6388 110.006 13.5189 109.971 13.6243C109.296 13.1318 108.62 12.8851 107.981 12.8851C106.631 12.8851 105.174 13.554 103.61 14.8916C102.09 16.2051 100.777 17.7227 99.6958 19.4442C99.7433 19.2985 99.7917 19.1536 99.84 19.0103C101.297 14.7156 103.322 10.2092 105.916 5.45666C107.089 3.34441 107.693 2.25315 107.693 2.21803C107.693 1.83086 107.302 1.33792 106.556 0.809858C105.81 0.281794 105.241 0 104.85 0C103.677 0 101.794 4.18939 101.261 5.28064C100.16 7.56892 99.2712 9.5758 98.5255 11.3005C97.3741 13.8754 95.8267 17.4161 94.0242 21.95C93.4977 21.115 92.6501 20.5015 91.5926 20.0313C90.3489 19.4681 89.6028 19.2219 88.4301 18.9401L87.8616 18.8347C86.5471 18.5884 83.6686 17.9897 83.6686 17.2154C83.6686 16.5464 84.237 15.5254 85.3743 14.223C86.5471 12.9202 87.6126 11.829 88.6077 10.984C90.3135 9.47003 91.8766 8.44943 93.3333 7.99161C92.694 9.78695 91.1305 12.2868 88.6077 15.5605C90.2067 15.5254 92.1255 14.6804 94.3997 13.0611C96.7093 11.4063 97.8462 9.9985 97.8462 8.80107C97.8462 6.97979 94.2039 4.43566 92.5876 4.43566C91.2018 4.43566 89.4251 5.10462 87.2223 6.40702C85.019 7.70982 83.0647 9.25849 81.3594 11.0893C79.6536 12.9198 78.8012 14.504 78.8012 15.8064C78.8012 18.341 81.1463 19.538 84.5932 20.2772C84.8417 20.3123 86.1567 20.5586 86.9737 20.7346L88.3241 21.0866C89.3188 21.368 89.8876 21.7556 89.8876 22.1779C89.8876 23.4452 88.6085 24.3959 86.9028 24.8533C85.1971 25.2756 83.7048 25.4517 82.5321 25.4517C79.8281 25.4517 77.5592 24.6167 74.5836 22.7347C74.3818 22.607 74.13 22.6241 73.9471 22.7774C73.7646 22.9307 73.7066 23.1742 73.8 23.3925C74.7427 25.5818 76.2043 27.1943 78.0547 28.0569C80.3135 29.1098 82.5317 29.465 85.3743 29.465V29.4674ZM108.869 16.6881C108.692 17.9203 108.869 19.0818 109.438 20.1379C108.479 21.5812 107.484 22.9191 106.382 24.081C104.783 25.771 103.433 26.6156 102.331 26.6156C102.331 25.2425 103.042 23.4472 104.499 21.2647C105.955 19.047 107.412 17.5331 108.869 16.6881ZM52.2903 7.24202C52.2387 7.24202 52.1521 7.22805 52.0304 7.20051C51.8487 7.159 51.6735 7.2069 51.5389 7.33462C51.4044 7.46235 51.3484 7.63398 51.3818 7.81559C51.6928 9.49438 52.4164 10.3206 53.5242 10.3206C54.2905 10.3206 56.4184 9.30838 58.0782 8.5073L59.4608 7.75492C59.674 7.63877 59.9294 7.67549 60.101 7.84632C60.2722 8.01756 60.3073 8.27061 60.1884 8.48096C56.5425 14.9427 53.944 19.4162 52.4176 21.9165C51.0047 24.2307 49.8638 26.0911 48.9275 27.4406C47.5679 29.461 46.2461 31.1091 44.9617 32.35C44.7954 32.5109 44.7519 32.7472 44.8501 32.9559C45.3356 33.9869 47.2871 34.2958 47.891 33.6959C50.5644 31.0396 53.4062 27.0841 56.5034 21.8318C57.6049 19.9643 59.2135 17.0956 61.3261 13.2268C61.449 13.0012 61.7092 12.8959 61.9566 12.9713C62.204 13.0463 62.3591 13.2786 62.3333 13.5337C61.9332 17.4409 61.3745 22.9347 60.9724 30.013C60.8672 31.8655 62.5895 32.5851 64.5051 32.5851C66.4207 32.5851 67.3405 31.8715 67.9951 30.6453C73.5055 20.3283 77.0934 9.3459 87.9579 2.08951C88.1481 1.96258 88.2343 1.74225 88.1799 1.52193C87.9994 0.792695 85.1447 0.918425 84.4969 0.958738C79.505 1.27127 72.2087 13.8718 69.6976 19.2179C69.3008 20.0724 68.9459 20.844 68.6276 21.5349C68.5193 21.7704 68.2622 21.8929 68.0084 21.8302C67.755 21.7676 67.5862 21.5393 67.6028 21.281C67.9476 15.7817 68.5704 10.3617 69.1445 5.00723C69.2211 4.29317 68.5487 3.78426 67.442 3.4893C66.378 3.15202 65.4841 3.10971 64.8032 3.32086C64.6755 3.36277 64.3774 3.36277 63.9947 3.36277C63.4839 3.36277 62.6326 3.57391 61.3982 3.99541C60.8451 4.20655 59.9511 4.58574 58.7168 5.17607C57.4824 5.7664 56.3761 6.2302 55.3544 6.60978C54.3328 6.94706 53.3115 7.1582 52.2899 7.24242L52.2903 7.24202ZM15.8987 6.00628C15.8987 4.77732 14.4705 3.92117 13.1547 3.66013C12.5158 3.51125 11.8394 3.43661 11.1626 3.39949C3.72126 18.2962 0 26.5265 0 28.0533C0 29.58 2.60815 30.4741 3.75873 30.4741C4.47301 30.4741 5.78836 30.2881 7.7056 29.9157C9.9983 29.5061 12.2914 29.022 14.6216 28.4632C15.2984 28.3514 16.1251 28.165 17.065 27.8673C18.0048 27.5695 18.4935 27.2342 18.4935 26.8618C18.4935 25.4836 16.9526 24.7392 15.5619 24.7392C14.4717 24.7392 13.1185 24.9627 12.179 25.1487C11.7278 25.2605 11.1267 25.4093 10.3746 25.67L8.75828 26.2288L6.99172 26.8989C6.12717 27.2342 5.60063 27.4202 5.37543 27.532C6.16464 25.1112 8.49521 20.6799 11.3894 15.3546C12.8554 12.7107 13.8702 10.8858 14.3589 9.88035C15.3741 7.90659 15.8999 6.603 15.8999 6.00748L15.8987 6.00628ZM28.6026 7.51903C29.1819 8.14608 29.3685 8.81584 29.3685 9.99889C29.3685 11.1819 29.2089 12.9046 28.8592 15.1514C28.7448 15.2077 28.6373 15.2444 28.5458 15.2444C27.7997 15.2444 27.4444 14.2585 27.4444 13.3784C27.4444 12.8504 27.6575 12.076 28.0483 11.055C28.4745 10.034 28.6876 9.22456 28.6876 8.62625C28.6876 8.20994 28.659 7.84114 28.6026 7.51943V7.51903ZM23.4645 11.4071C23.2868 12.6392 23.4645 13.8007 24.0329 14.8568C23.0737 16.3001 22.0786 17.6381 20.9772 18.8C19.3782 20.4899 18.0278 21.3345 16.9264 21.3345C16.9264 19.9615 17.637 18.1661 19.0938 15.9836C20.5505 13.7656 22.0073 12.252 23.4645 11.4071Z" fill="black"/>
</svg>
